<?xml version="1.0" standalone="no"?>
<!DOCTYPE svg PUBLIC "-//W3C//DTD SVG 20010904//EN"
 "http://www.w3.org/TR/2001/REC-SVG-20010904/DTD/svg10.dtd">
<svg version="1.0" xmlns="http://www.w3.org/2000/svg"
 width="700.000000pt" height="700.000000pt" viewBox="0 0 700.000000 700.000000"
 preserveAspectRatio="xMidYMid meet">
<metadata>
Created by potrace 1.14, written by Peter Selinger 2001-2017
</metadata>
<g transform="translate(0.000000,700.000000) scale(0.100000,-0.100000)"
fill="#000000" stroke="none">
<path d="M845 6984 c-427 -75 -759 -411 -829 -839 -15 -91 -17 -329 -14 -2690
l3 -2590 27 -100 c100 -360 373 -633 733 -733 l100 -27 2635 0 2635 0 100 27
c360 100 633 373 733 733 l27 100 0 2635 0 2635 -27 100 c-100 360 -375 635
-733 733 l-100 27 -2605 2 c-2207 1 -2617 -1 -2685 -13z m1571 -1031 c69 -49
64 116 64 -2012 0 -2085 3 -1958 -55 -2011 l-27 -25 -648 0 -649 0 -31 30
c-17 16 -35 45 -41 65 -7 23 -9 671 -7 1960 l3 1925 22 31 c47 66 22 64 713
61 l625 -2 31 -22z m2314 9 c19 -9 45 -32 57 -51 l23 -34 0 -992 0 -992 -23
-34 c-48 -72 -20 -70 -714 -67 -610 3 -622 3 -649 24 -15 11 -37 33 -48 48
-21 27 -21 36 -24 974 -2 521 0 971 3 1000 7 59 40 106 90 128 24 10 155 13
640 14 561 0 613 -1 645 -18z"/>
</g>
</svg>
