<svg width="1024" height="1024" viewBox="0 0 1024 1024" fill="none" xmlns="http://www.w3.org/2000/svg">
<path d="M77.248 415.04C89.2498 403.042 105.526 396.302 122.496 396.302C139.467 396.302 155.742 403.042 167.744 415.04L394.048 641.344L846.528 188.8C852.47 182.854 859.525 178.136 867.29 174.916C875.056 171.697 883.379 170.038 891.785 170.035C900.192 170.032 908.516 171.685 916.284 174.899C924.051 178.113 931.11 182.826 937.056 188.768C943.002 194.71 947.72 201.765 950.94 209.53C954.159 217.296 955.818 225.619 955.821 234.025C955.824 242.432 954.171 250.756 950.957 258.524C947.743 266.291 943.03 273.35 937.088 279.296L394.048 822.336L77.248 505.536C65.2499 493.534 58.5097 477.259 58.5097 460.288C58.5097 443.317 65.2499 427.042 77.248 415.04V415.04Z" fill="white"/>
</svg>
